<?xml version="1.0" encoding="UTF-8" standalone="no"?>
<svg width="317.5mm" height="94.4562mm"
 xmlns="http://www.w3.org/2000/svg" xmlns:xlink="http://www.w3.org/1999/xlink"  version="1.2" baseProfile="tiny">
<desc>Created by HiQPdf</desc>
<defs>
<linearGradient gradientUnits="userSpaceOnUse" x1="0" y1="0" x2="1" y2="0" id="gradient1">
    <stop offset="1e-07" stop-color="#b88746" stop-opacity="1" />
    <stop offset="1" stop-color="#fdf5a6" stop-opacity="1" />
</linearGradient>
<linearGradient gradientUnits="userSpaceOnUse" x1="0" y1="0" x2="1" y2="0" id="gradient2">
    <stop offset="1e-07" stop-color="#b88746" stop-opacity="1" />
    <stop offset="1" stop-color="#fdf5a6" stop-opacity="1" />
</linearGradient>
<linearGradient gradientUnits="userSpaceOnUse" x1="0" y1="0" x2="1" y2="0" id="gradient3">
    <stop offset="1e-07" stop-color="#b88746" stop-opacity="1" />
    <stop offset="1" stop-color="#fdf5a6" stop-opacity="1" />
</linearGradient>
<linearGradient gradientUnits="userSpaceOnUse" x1="0" y1="0" x2="1" y2="0" id="gradient4">
    <stop offset="1e-07" stop-color="#b88746" stop-opacity="1" />
    <stop offset="1" stop-color="#fdf5a6" stop-opacity="1" />
</linearGradient>
<linearGradient gradientUnits="userSpaceOnUse" x1="0" y1="0" x2="1" y2="0" id="gradient5">
    <stop offset="1e-07" stop-color="#b88746" stop-opacity="1" />
    <stop offset="1" stop-color="#fdf5a6" stop-opacity="1" />
</linearGradient>
<linearGradient gradientUnits="userSpaceOnUse" x1="0" y1="0" x2="1" y2="0" id="gradient6">
    <stop offset="1e-07" stop-color="#b88746" stop-opacity="1" />
    <stop offset="1" stop-color="#fdf5a6" stop-opacity="1" />
</linearGradient>
<linearGradient gradientUnits="userSpaceOnUse" x1="0" y1="0" x2="1" y2="0" id="gradient7">
    <stop offset="1e-07" stop-color="#b88746" stop-opacity="1" />
    <stop offset="1" stop-color="#fdf5a6" stop-opacity="1" />
</linearGradient>
<linearGradient gradientUnits="userSpaceOnUse" x1="0" y1="0" x2="1" y2="0" id="gradient8">
    <stop offset="1e-07" stop-color="#b88746" stop-opacity="1" />
    <stop offset="1" stop-color="#fdf5a6" stop-opacity="1" />
</linearGradient>
<linearGradient gradientUnits="userSpaceOnUse" x1="0" y1="0" x2="1" y2="0" id="gradient9">
    <stop offset="1e-07" stop-color="#b88746" stop-opacity="1" />
    <stop offset="1" stop-color="#fdf5a6" stop-opacity="1" />
</linearGradient>
<linearGradient gradientUnits="userSpaceOnUse" x1="0" y1="0" x2="1" y2="0" id="gradient10">
    <stop offset="1e-07" stop-color="#b88746" stop-opacity="1" />
    <stop offset="1" stop-color="#fdf5a6" stop-opacity="1" />
</linearGradient>
<linearGradient gradientUnits="userSpaceOnUse" x1="0" y1="0" x2="1" y2="0" id="gradient11">
    <stop offset="1e-07" stop-color="#b88746" stop-opacity="1" />
    <stop offset="1" stop-color="#fdf5a6" stop-opacity="1" />
</linearGradient>
<linearGradient gradientUnits="userSpaceOnUse" x1="0" y1="0" x2="1" y2="0" id="gradient12">
    <stop offset="1e-07" stop-color="#b88746" stop-opacity="1" />
    <stop offset="1" stop-color="#fdf5a6" stop-opacity="1" />
</linearGradient>
<linearGradient gradientUnits="userSpaceOnUse" x1="0" y1="0" x2="1" y2="0" id="gradient13">
    <stop offset="1e-07" stop-color="#b88746" stop-opacity="1" />
    <stop offset="1" stop-color="#fdf5a6" stop-opacity="1" />
</linearGradient>
<linearGradient gradientUnits="userSpaceOnUse" x1="0" y1="0" x2="1" y2="0" id="gradient14">
    <stop offset="1e-07" stop-color="#b88746" stop-opacity="1" />
    <stop offset="1" stop-color="#fdf5a6" stop-opacity="1" />
</linearGradient>
<linearGradient gradientUnits="userSpaceOnUse" x1="0" y1="0" x2="1" y2="0" id="gradient15">
    <stop offset="1e-07" stop-color="#b88746" stop-opacity="1" />
    <stop offset="1" stop-color="#fdf5a6" stop-opacity="1" />
</linearGradient>
<linearGradient gradientUnits="userSpaceOnUse" x1="0" y1="0" x2="1" y2="0" id="gradient16">
    <stop offset="1e-07" stop-color="#b88746" stop-opacity="1" />
    <stop offset="1" stop-color="#fdf5a6" stop-opacity="1" />
</linearGradient>
</defs>
<g fill="none" stroke="black" stroke-width="1" fill-rule="evenodd" stroke-linecap="square" stroke-linejoin="bevel" >

<g fill="#000000" fill-opacity="1" stroke="#000000" stroke-opacity="1" stroke-width="1" stroke-linecap="square" stroke-linejoin="miter" stroke-miterlimit="2" transform="matrix(1,0,0,1,0,0)"
>
</g>

<g fill="#000000" fill-opacity="1" stroke="#000000" stroke-opacity="1" stroke-width="1" stroke-linecap="square" stroke-linejoin="miter" stroke-miterlimit="2" transform="matrix(1,0,0,1,0,0)"
>
</g>

<g fill="#000000" fill-opacity="1" stroke="#000000" stroke-opacity="1" stroke-width="1" stroke-linecap="square" stroke-linejoin="miter" stroke-miterlimit="2" transform="matrix(1,0,0,1,0,0)"
>
</g>

<g fill="#000000" fill-opacity="1" stroke="#000000" stroke-opacity="1" stroke-width="1" stroke-linecap="square" stroke-linejoin="miter" stroke-miterlimit="2" transform="matrix(1,0,0,1,0,0)"
>
</g>

<g fill="#000000" fill-opacity="1" stroke="#000000" stroke-opacity="1" stroke-width="1" stroke-linecap="square" stroke-linejoin="miter" stroke-miterlimit="2" transform="matrix(2.12291,0,0,2.12291,8.0027,8)"
>
</g>

<g fill="#000000" fill-opacity="1" stroke="#000000" stroke-opacity="1" stroke-width="1" stroke-linecap="square" stroke-linejoin="miter" stroke-miterlimit="2" transform="matrix(29.5053,0,0,29.5053,84.9659,-24.6668)"
>
</g>

<g fill="url(#gradient1)" stroke="none" transform="matrix(29.5053,0,0,29.5053,84.9659,-24.6668)"
>
<path vector-effect="none" fill-rule="nonzero" d="M1.378,2.504 L1.777,2.319 L1.777,2.229 L1.378,2.414 L1.378,2.504"/>
</g>

<g fill="#000000" fill-opacity="1" stroke="#000000" stroke-opacity="1" stroke-width="1" stroke-linecap="square" stroke-linejoin="miter" stroke-miterlimit="2" transform="matrix(29.5053,0,0,29.5053,84.9659,-24.6668)"
>
</g>

<g fill="#000000" fill-opacity="1" stroke="#000000" stroke-opacity="1" stroke-width="1" stroke-linecap="square" stroke-linejoin="miter" stroke-miterlimit="2" transform="matrix(29.5053,0,0,29.5053,84.9659,-24.6668)"
>
</g>

<g fill="url(#gradient2)" stroke="none" transform="matrix(29.5053,0,0,29.5053,84.9659,-24.6668)"
>
<path vector-effect="none" fill-rule="nonzero" d="M1.378,2.646 L1.777,2.462 L1.777,2.372 L1.378,2.558 L1.378,2.646"/>
</g>

<g fill="#000000" fill-opacity="1" stroke="#000000" stroke-opacity="1" stroke-width="1" stroke-linecap="square" stroke-linejoin="miter" stroke-miterlimit="2" transform="matrix(29.5053,0,0,29.5053,84.9659,-24.6668)"
>
</g>

<g fill="#000000" fill-opacity="1" stroke="#000000" stroke-opacity="1" stroke-width="1" stroke-linecap="square" stroke-linejoin="miter" stroke-miterlimit="2" transform="matrix(29.5053,0,0,29.5053,84.9659,-24.6668)"
>
</g>

<g fill="url(#gradient3)" stroke="none" transform="matrix(29.5053,0,0,29.5053,84.9659,-24.6668)"
>
<path vector-effect="none" fill-rule="nonzero" d="M1.378,2.79 L1.777,2.605 L1.777,2.516 L1.378,2.7 L1.378,2.79"/>
</g>

<g fill="#000000" fill-opacity="1" stroke="#000000" stroke-opacity="1" stroke-width="1" stroke-linecap="square" stroke-linejoin="miter" stroke-miterlimit="2" transform="matrix(29.5053,0,0,29.5053,84.9659,-24.6668)"
>
</g>

<g fill="#000000" fill-opacity="1" stroke="#000000" stroke-opacity="1" stroke-width="1" stroke-linecap="square" stroke-linejoin="miter" stroke-miterlimit="2" transform="matrix(29.5053,0,0,29.5053,84.9659,-24.6668)"
>
</g>

<g fill="url(#gradient4)" stroke="none" transform="matrix(29.5053,0,0,29.5053,84.9659,-24.6668)"
>
<path vector-effect="none" fill-rule="nonzero" d="M1.061,3.078 L1.777,2.748 L1.777,2.659 L1.061,2.989 L1.061,3.078"/>
</g>

<g fill="#000000" fill-opacity="1" stroke="#000000" stroke-opacity="1" stroke-width="1" stroke-linecap="square" stroke-linejoin="miter" stroke-miterlimit="2" transform="matrix(29.5053,0,0,29.5053,84.9659,-24.6668)"
>
</g>

<g fill="#000000" fill-opacity="1" stroke="#000000" stroke-opacity="1" stroke-width="1" stroke-linecap="square" stroke-linejoin="miter" stroke-miterlimit="2" transform="matrix(29.5053,0,0,29.5053,84.9659,-24.6668)"
>
</g>

<g fill="url(#gradient5)" stroke="none" transform="matrix(29.5053,0,0,29.5053,84.9659,-24.6668)"
>
<path vector-effect="none" fill-rule="nonzero" d="M1.061,3.222 L1.777,2.892 L1.777,2.802 L1.061,3.132 L1.061,3.222"/>
</g>

<g fill="#000000" fill-opacity="1" stroke="#000000" stroke-opacity="1" stroke-width="1" stroke-linecap="square" stroke-linejoin="miter" stroke-miterlimit="2" transform="matrix(29.5053,0,0,29.5053,84.9659,-24.6668)"
>
</g>

<g fill="#000000" fill-opacity="1" stroke="#000000" stroke-opacity="1" stroke-width="1" stroke-linecap="square" stroke-linejoin="miter" stroke-miterlimit="2" transform="matrix(29.5053,0,0,29.5053,84.9659,-24.6668)"
>
</g>

<g fill="url(#gradient6)" stroke="none" transform="matrix(29.5053,0,0,29.5053,84.9659,-24.6668)"
>
<path vector-effect="none" fill-rule="nonzero" d="M1.061,3.364 L1.777,3.033 L1.777,2.945 L1.061,3.275 L1.061,3.364"/>
</g>

<g fill="#000000" fill-opacity="1" stroke="#000000" stroke-opacity="1" stroke-width="1" stroke-linecap="square" stroke-linejoin="miter" stroke-miterlimit="2" transform="matrix(29.5053,0,0,29.5053,84.9659,-24.6668)"
>
</g>

<g fill="#000000" fill-opacity="1" stroke="#000000" stroke-opacity="1" stroke-width="1" stroke-linecap="square" stroke-linejoin="miter" stroke-miterlimit="2" transform="matrix(29.5053,0,0,29.5053,84.9659,-24.6668)"
>
</g>

<g fill="url(#gradient7)" stroke="none" transform="matrix(29.5053,0,0,29.5053,84.9659,-24.6668)"
>
<path vector-effect="none" fill-rule="nonzero" d="M1.061,3.511 L1.777,3.177 L1.777,3.087 L1.061,3.418 L1.061,3.511"/>
</g>

<g fill="#000000" fill-opacity="1" stroke="#000000" stroke-opacity="1" stroke-width="1" stroke-linecap="square" stroke-linejoin="miter" stroke-miterlimit="2" transform="matrix(29.5053,0,0,29.5053,84.9659,-24.6668)"
>
</g>

<g fill="#000000" fill-opacity="1" stroke="#000000" stroke-opacity="1" stroke-width="1" stroke-linecap="square" stroke-linejoin="miter" stroke-miterlimit="2" transform="matrix(29.5053,0,0,29.5053,84.9659,-24.6668)"
>
</g>

<g fill="url(#gradient8)" stroke="none" transform="matrix(29.5053,0,0,29.5053,84.9659,-24.6668)"
>
<path vector-effect="none" fill-rule="nonzero" d="M1.061,3.678 L1.777,3.678 L1.777,3.23 L1.061,3.564 L1.061,3.678"/>
</g>

<g fill="#000000" fill-opacity="1" stroke="#000000" stroke-opacity="1" stroke-width="1" stroke-linecap="square" stroke-linejoin="miter" stroke-miterlimit="2" transform="matrix(29.5053,0,0,29.5053,84.9659,-24.6668)"
>
</g>

<g fill="#000000" fill-opacity="1" stroke="#000000" stroke-opacity="1" stroke-width="1" stroke-linecap="square" stroke-linejoin="miter" stroke-miterlimit="2" transform="matrix(29.5053,0,0,29.5053,84.9659,-24.6668)"
>
</g>

<g fill="url(#gradient9)" stroke="none" transform="matrix(29.5053,0,0,29.5053,84.9659,-24.6668)"
>
<path vector-effect="none" fill-rule="nonzero" d="M1.939,1.724 L1.841,1.771 L1.841,3.678 L1.939,3.678 L1.939,1.724"/>
</g>

<g fill="#000000" fill-opacity="1" stroke="#000000" stroke-opacity="1" stroke-width="1" stroke-linecap="square" stroke-linejoin="miter" stroke-miterlimit="2" transform="matrix(29.5053,0,0,29.5053,84.9659,-24.6668)"
>
</g>

<g fill="#000000" fill-opacity="1" stroke="#000000" stroke-opacity="1" stroke-width="1" stroke-linecap="square" stroke-linejoin="miter" stroke-miterlimit="2" transform="matrix(29.5053,0,0,29.5053,84.9659,-24.6668)"
>
</g>

<g fill="url(#gradient10)" stroke="none" transform="matrix(29.5053,0,0,29.5053,84.9659,-24.6668)"
>
<path vector-effect="none" fill-rule="nonzero" d="M2.081,3.678 L2.081,1.654 L1.983,1.702 L1.983,3.678 L2.081,3.678"/>
</g>

<g fill="#000000" fill-opacity="1" stroke="#000000" stroke-opacity="1" stroke-width="1" stroke-linecap="square" stroke-linejoin="miter" stroke-miterlimit="2" transform="matrix(29.5053,0,0,29.5053,84.9659,-24.6668)"
>
</g>

<g fill="#000000" fill-opacity="1" stroke="#000000" stroke-opacity="1" stroke-width="1" stroke-linecap="square" stroke-linejoin="miter" stroke-miterlimit="2" transform="matrix(29.5053,0,0,29.5053,84.9659,-24.6668)"
>
</g>

<g fill="url(#gradient11)" stroke="none" transform="matrix(29.5053,0,0,29.5053,84.9659,-24.6668)"
>
<path vector-effect="none" fill-rule="nonzero" d="M2.224,3.678 L2.224,1.586 L2.127,1.634 L2.127,3.678 L2.224,3.678"/>
</g>

<g fill="#000000" fill-opacity="1" stroke="#000000" stroke-opacity="1" stroke-width="1" stroke-linecap="square" stroke-linejoin="miter" stroke-miterlimit="2" transform="matrix(29.5053,0,0,29.5053,84.9659,-24.6668)"
>
</g>

<g fill="#000000" fill-opacity="1" stroke="#000000" stroke-opacity="1" stroke-width="1" stroke-linecap="square" stroke-linejoin="miter" stroke-miterlimit="2" transform="matrix(29.5053,0,0,29.5053,84.9659,-24.6668)"
>
</g>

<g fill="url(#gradient12)" stroke="none" transform="matrix(29.5053,0,0,29.5053,84.9659,-24.6668)"
>
<path vector-effect="none" fill-rule="nonzero" d="M2.368,3.678 L2.368,1.521 L2.27,1.564 L2.27,3.678 L2.368,3.678"/>
</g>

<g fill="#000000" fill-opacity="1" stroke="#000000" stroke-opacity="1" stroke-width="1" stroke-linecap="square" stroke-linejoin="miter" stroke-miterlimit="2" transform="matrix(29.5053,0,0,29.5053,84.9659,-24.6668)"
>
</g>

<g fill="#000000" fill-opacity="1" stroke="#000000" stroke-opacity="1" stroke-width="1" stroke-linecap="square" stroke-linejoin="miter" stroke-miterlimit="2" transform="matrix(29.5053,0,0,29.5053,84.9659,-24.6668)"
>
</g>

<g fill="url(#gradient13)" stroke="none" transform="matrix(29.5053,0,0,29.5053,84.9659,-24.6668)"
>
<path vector-effect="none" fill-rule="nonzero" d="M2.51,3.678 L2.51,1.45 L2.411,1.497 L2.411,3.678 L2.51,3.678"/>
</g>

<g fill="#000000" fill-opacity="1" stroke="#000000" stroke-opacity="1" stroke-width="1" stroke-linecap="square" stroke-linejoin="miter" stroke-miterlimit="2" transform="matrix(29.5053,0,0,29.5053,84.9659,-24.6668)"
>
</g>

<g fill="#000000" fill-opacity="1" stroke="#000000" stroke-opacity="1" stroke-width="1" stroke-linecap="square" stroke-linejoin="miter" stroke-miterlimit="2" transform="matrix(29.5053,0,0,29.5053,84.9659,-24.6668)"
>
</g>

<g fill="url(#gradient14)" stroke="none" transform="matrix(29.5053,0,0,29.5053,84.9659,-24.6668)"
>
<path vector-effect="none" fill-rule="nonzero" d="M2.654,3.678 L2.654,1.384 L2.556,1.43 L2.556,3.678 L2.654,3.678"/>
</g>

<g fill="#000000" fill-opacity="1" stroke="#000000" stroke-opacity="1" stroke-width="1" stroke-linecap="square" stroke-linejoin="miter" stroke-miterlimit="2" transform="matrix(29.5053,0,0,29.5053,84.9659,-24.6668)"
>
</g>

<g fill="#000000" fill-opacity="1" stroke="#000000" stroke-opacity="1" stroke-width="1" stroke-linecap="square" stroke-linejoin="miter" stroke-miterlimit="2" transform="matrix(29.5053,0,0,29.5053,84.9659,-24.6668)"
>
</g>

<g fill="url(#gradient15)" stroke="none" transform="matrix(29.5053,0,0,29.5053,84.9659,-24.6668)"
>
<path vector-effect="none" fill-rule="nonzero" d="M3.922,2.581 L3.533,2.106 L3.533,1.815 L2.796,1.323 L2.776,1.323 L2.7,1.361 L2.7,3.678 L2.796,3.678 L2.877,3.678 L2.877,2.778 L3.12,2.629 L3.122,3.678 L3.288,3.678 L3.288,2.253 L3.533,2.106 L3.533,3.678 L3.939,3.678 L3.922,3.618 L3.922,3.082 L3.922,2.581"/>
</g>

<g fill="#000000" fill-opacity="1" stroke="#000000" stroke-opacity="1" stroke-width="1" stroke-linecap="square" stroke-linejoin="miter" stroke-miterlimit="2" transform="matrix(29.5053,0,0,29.5053,84.9659,-24.6668)"
>
</g>

<g fill="#000000" fill-opacity="1" stroke="#000000" stroke-opacity="1" stroke-width="1" stroke-linecap="square" stroke-linejoin="miter" stroke-miterlimit="2" transform="matrix(29.5053,0,0,29.5053,84.9659,-24.6668)"
>
</g>

<g fill="#000000" fill-opacity="1" stroke="#000000" stroke-opacity="1" stroke-width="1" stroke-linecap="square" stroke-linejoin="miter" stroke-miterlimit="2" transform="matrix(29.5053,0,0,29.5053,84.9659,-24.6668)"
>
</g>

<g fill="#000000" fill-opacity="1" stroke="#000000" stroke-opacity="1" stroke-width="1" stroke-linecap="square" stroke-linejoin="miter" stroke-miterlimit="2" transform="matrix(2.12291,0,0,2.12291,8.0027,8)"
>
</g>

<g fill="#000000" fill-opacity="1" stroke="#000000" stroke-opacity="1" stroke-width="1" stroke-linecap="square" stroke-linejoin="miter" stroke-miterlimit="2" transform="matrix(11.5174,0,0,11.5174,43.2796,63.4248)"
>
</g>

<g fill="#ffffff" fill-opacity="1" stroke="none" transform="matrix(11.5174,0,0,11.5174,43.2796,63.4248)"
>
<path vector-effect="none" fill-rule="nonzero" d="M3.38,6.9 L5.12,10.26 L6.82,6.9 C6.88,6.8 6.9,6.8 6.98,6.8 L9.22,6.8 C9.34,6.8 9.42,6.92 9.38,7.02 L6.48,13.76 L6.48,19.82 C6.48,19.92 6.4,20 6.3,20 L3.94,20 C3.88,20 3.8,19.92 3.8,19.82 L3.8,13.76 L0.819999,7.06 C0.779999,6.92 0.839999,6.8 0.979999,6.8 L3.22,6.8 C3.3,6.8 3.32,6.8 3.38,6.9 L3.38,6.9 M5.22,13.3 L7.72,8.1 C7.78,7.98 7.58,7.88 7.5,8.02 L5.12,13 L2.68,8.02 C2.6,7.88 2.38,7.98 2.44,8.12 L5,13.3 L5,18.82 C5,18.96 5.22,18.98 5.22,18.82 L5.22,13.3 L5.22,13.3 M12.26,20 C12.16,20 12.1,19.92 12.1,19.82 L12.1,6.98 C12.1,6.88 12.16,6.8 12.26,6.8 L19.06,6.8 C19.16,6.8 19.24,6.88 19.24,6.98 L19.24,9.12 C19.24,9.22 19.16,9.3 19.06,9.3 L14.74,9.3 L14.74,12.02 L18.1,12.02 C18.2,12.02 18.26,12.1 18.26,12.2 L18.26,14.38 C18.26,14.48 18.2,14.56 18.1,14.56 L14.74,14.56 L14.74,17.5 L19.06,17.5 C19.16,17.5 19.24,17.58 19.24,17.68 L19.24,19.82 C19.24,19.92 19.16,20 19.06,20 L12.26,20 L12.26,20 M13.26,8.06 L13.26,18.7 C13.26,18.82 13.34,18.86 13.42,18.86 L18.02,18.86 C18.2,18.86 18.16,18.62 18.02,18.62 L13.52,18.62 L13.52,13.4 L17.2,13.4 C17.32,13.4 17.32,13.12 17.2,13.12 L13.52,13.12 L13.52,8.16 L18.02,8.16 C18.16,8.16 18.2,7.9 18.02,7.9 L13.42,7.9 C13.34,7.9 13.26,7.96 13.26,8.06 L13.26,8.06"/>
</g>

<g fill="#000000" fill-opacity="1" stroke="#000000" stroke-opacity="1" stroke-width="1" stroke-linecap="square" stroke-linejoin="miter" stroke-miterlimit="2" transform="matrix(11.5174,0,0,11.5174,43.2796,63.4248)"
>
</g>

<g fill="#000000" fill-opacity="1" stroke="#000000" stroke-opacity="1" stroke-width="1" stroke-linecap="square" stroke-linejoin="miter" stroke-miterlimit="2" transform="matrix(2.12291,0,0,2.12291,8.0027,8)"
>
</g>

<g fill="#000000" fill-opacity="1" stroke="#000000" stroke-opacity="1" stroke-width="1" stroke-linecap="square" stroke-linejoin="miter" stroke-miterlimit="2" transform="matrix(1.31491,0,0,1.31491,17.0404,322.95)"
>
</g>

<g fill="url(#gradient16)" stroke="none" transform="matrix(1.31491,0,0,1.31491,17.0404,322.95)"
>
<path vector-effect="none" fill-rule="nonzero" d="M12.758,6.08 C12.898,6.18 12.918,6.40002 12.798,6.54002 L8.61802,11.54 L8.57802,11.5828 L8.57783,19.6504 C8.57783,19.6536 8.57802,19.6568 8.57802,19.66 C8.57802,19.86 8.41802,20 8.23802,20 L6.35802,20 C6.15802,20 6.01802,19.86 6.01822,19.65 C6.01803,19.6466 6.01803,19.6434 6.01803,19.64 L6.01803,12.3322 L1.27803,6.66002 C1.15803,6.52002 1.17803,6.32002 1.31803,6.20002 C1.45803,6.08002 1.65803,6.10002 1.77803,6.24002 L6.55803,11.96 L6.59863,12.0202 C6.64902,12.0806 6.67783,12.1582 6.67783,12.24 L6.67783,19.34 L7.91783,19.34 L7.91783,11.5638 L7.89783,11.54 L3.74783,6.59939 C3.66844,6.54179 3.61783,6.4482 3.61783,6.33999 L3.62062,6.29198 C3.62383,6.26019 3.63143,6.22919 3.64342,6.20019 C3.69182,6.07779 3.80362,5.99999 3.93782,5.99999 L12.5378,5.99999 L12.5854,6.00339 C12.6464,6.01059 12.7062,6.03579 12.758,6.07999 L12.758,6.08 M11.844,6.66 L4.669,6.66 L8.248,10.941 L11.844,6.66 M17.4566,19.34 L24.942,19.34 C25.122,19.34 25.262,19.48 25.262,19.66 C25.262,19.84 25.122,20 24.942,20 L16.402,20 C16.222,20 16.062,19.84 16.0626,19.6406 C16.0622,19.6338 16.062,19.6268 16.062,19.62 L16.062,6.31999 C16.062,6.14 16.202,5.99999 16.402,5.99999 L24.942,5.99999 C25.122,5.99999 25.262,6.13999 25.262,6.33999 C25.262,6.39538 25.2486,6.44719 25.225,6.49219 C25.2176,6.52898 25.2036,6.56539 25.182,6.6 L21.1192,13.3 L24.002,13.3 C24.182,13.3 24.322,13.46 24.322,13.64 C24.322,13.82 24.182,13.96 24.002,13.96 L20.719,13.96 L17.4566,19.34 M16.722,19.255 L24.3594,6.65998 L23.0076,6.65998 L22.982,6.71998 L16.722,16.72 L16.722,19.255 L16.722,19.255 M22.227,6.66 L16.722,6.66 L16.722,15.4644 L22.227,6.66 M38.964,6.68 L35.712,9.5126 C38.4792,10.0472 40.4474,12.5384 40.1638,15.2798 C39.9438,17.5398 38.2438,19.3798 35.9438,19.8798 L35.8838,19.8998 C35.692,19.9478 35.4874,19.983 35.3008,19.9952 L35.244,20 L35.164,20 L35.064,20 L29.584,20 C29.404,20 29.244,19.86 29.244,19.68 L29.2446,19.659 C29.2442,19.6526 29.244,19.6464 29.244,19.64 L29.244,6.34001 C29.244,6.16001 29.404,6.00001 29.584,6.00001 C29.764,6.00001 29.904,6.16001 29.904,6.34001 L29.904,19.34 L31.164,19.34 L31.164,6.33202 C31.1684,6.15542 31.3068,6.00041 31.4934,6.00062 L31.504,6.00042 L38.824,6.00042 C39.004,6.00042 39.144,6.16042 39.144,6.34042 C39.144,6.43942 39.1016,6.53243 39.0336,6.59602 C39.0164,6.62682 38.9932,6.65541 38.964,6.68041 L38.964,6.68 M37.95,6.68 L31.824,6.68 L31.824,12.0166 L37.95,6.68 M35.164,10.0998 L35.065,10.0764 L31.824,12.8998 L31.824,14.4896 L36.501,10.4264 C36.083,10.2614 35.6344,10.1492 35.164,10.0998 L35.164,10.0998 M39.504,15.2198 C39.7084,13.351 38.719,11.6314 37.1352,10.7302 C37.1178,10.7634 37.094,10.7938 37.0638,10.8198 L31.8638,15.3198 L31.8238,15.3546 L31.8238,19.3398 L35.0354,19.3398 L35.1038,19.3398 L35.2394,19.3398 C35.4108,19.326 35.6196,19.2708 35.744,19.2398 L35.804,19.2398 C37.824,18.7998 39.304,17.1798 39.504,15.2198 L39.504,15.2198 L39.504,15.2198 M47.546,6.32 L47.546,19.62 C47.546,19.6862 47.5284,19.7458 47.4984,19.796 C47.4492,19.9134 47.3384,20 47.206,20 L45.306,20 C45.126,20 44.966,19.84 44.9666,19.641 C44.9662,19.6342 44.966,19.6272 44.966,19.62 L44.966,6.32001 C44.966,6.14001 45.126,6.00001 45.306,6.00001 C45.486,6.00001 45.626,6.14001 45.626,6.32001 L45.626,19.32 L46.886,19.32 L46.886,6.32001 C46.886,6.14001 47.026,6.00001 47.206,6.00001 C47.386,6.00001 47.546,6.14001 47.546,6.32001 L47.546,6.32 M61.248,10.58 L61.2465,10.61 C61.2477,10.62 61.2483,10.63 61.2483,10.64 C61.2483,10.82 61.1083,10.96 60.9283,10.96 L58.9483,10.96 C58.7683,10.96 58.6283,10.82 58.6283,10.64 C58.6283,10.48 58.7683,10.34 58.9483,10.34 L60.6217,10.34 C60.5041,8.2114 58.8321,6.52 56.7883,6.52 C55.3693,6.52 54.1147,7.3418 53.4439,8.5584 L61.0483,16.38 C61.1385,16.4702 61.1609,16.6058 61.1153,16.7184 L61.1083,16.74 C60.5683,18.74 58.7683,20.12 56.7883,20.12 C54.3283,20.12 52.3283,18.02 52.3283,15.46 L52.3307,15.4202 C52.3291,15.4072 52.3283,15.3938 52.3283,15.3802 C52.3283,15.2202 52.4683,15.0802 52.6283,15.0802 L54.2683,15.0802 C54.4283,15.0802 54.5683,15.2202 54.5683,15.3802 C54.5683,15.5602 54.4283,15.7002 54.2683,15.7002 L52.9549,15.7002 C53.0735,17.8112 54.7451,19.5202 56.7883,19.5202 C57.8605,19.5202 58.8769,19.0428 59.6019,18.2536 L52.4481,11.08 L52.4035,11.0244 C52.3568,10.9712 52.328,10.9026 52.328,10.83 L52.328,10.3 C52.468,7.84 54.408,5.88 56.788,5.88 C59.248,5.88 61.248,8 61.248,10.58 L61.248,10.58 L61.248,10.58 M60.4972,16.6862 L53.1694,9.168 C53.0574,9.4824 52.9818,9.8148 52.948,10.16 C52.9302,10.2856 52.9284,10.6122 52.9282,10.7 L59.9966,17.749 C60.2096,17.4274 60.38,17.0706 60.4972,16.6862 L60.4972,16.6862 M74.2066,19.34 L81.692,19.34 C81.872,19.34 82.012,19.48 82.012,19.66 C82.012,19.84 81.872,20 81.692,20 L73.152,20 C72.972,20 72.812,19.84 72.8126,19.6406 C72.8122,19.6338 72.812,19.6268 72.812,19.62 L72.812,6.31999 C72.812,6.14 72.952,5.99999 73.152,5.99999 L81.692,5.99999 C81.872,5.99999 82.012,6.13999 82.012,6.33999 C82.012,6.39538 81.9986,6.44719 81.975,6.49219 C81.9676,6.52898 81.9536,6.56539 81.932,6.6 L77.8692,13.3 L80.752,13.3 C80.932,13.3 81.072,13.46 81.072,13.64 C81.072,13.82 80.932,13.96 80.752,13.96 L77.469,13.96 L74.2066,19.34 M73.472,19.255 L81.1094,6.65998 L79.7576,6.65998 L79.732,6.71998 L73.472,16.72 L73.472,19.255 L73.472,19.255 M78.977,6.66 L73.472,6.66 L73.472,15.4644 L78.977,6.66 M96.334,6 C96.514,6 96.6742,6.15977 96.6742,6.33976 L96.6742,19.6798 C96.6742,19.8598 96.5142,19.9998 96.3292,19.9998 L96.3246,19.9998 L96.321,19.9998 C96.3044,19.9992 96.2882,19.9974 96.2702,19.994 C96.2696,19.994 96.2692,19.9938 96.2686,19.9938 C96.1934,19.9794 96.1254,19.9408 96.0758,19.8864 L96.0342,19.84 L88.5742,7.52398 L88.5742,10.0404 L94.4742,19.5004 C94.5742,19.6604 94.5342,19.8604 94.3742,19.9604 C94.3142,19.9804 94.2542,20.0004 94.1942,20.0004 C94.0942,20.0004 93.9742,19.9404 93.9142,19.8404 L88.5742,11.2964 L88.5742,19.6404 C88.5742,19.6918 88.561,19.74 88.5382,19.7826 C88.4966,19.9106 88.3782,20.0004 88.234,20.0004 L86.334,20.0004 C86.154,20.0004 85.994,19.8604 85.994,19.6804 L85.9946,19.66 C85.9942,19.6534 85.994,19.647 85.994,19.6404 L85.994,6.34041 C85.994,6.16041 86.134,6.00041 86.334,6.00041 C86.514,6.00041 86.654,6.16041 86.654,6.34041 L86.654,19.3404 L87.894,19.3404 L87.894,6.34041 C87.894,6.16041 88.054,6.00041 88.234,6.00041 L88.337,6.01801 C88.401,6.03601 88.4588,6.07422 88.497,6.13121 L88.5492,6.21841 L95.994,18.4794 L95.994,6.34041 C95.994,6.16041 96.154,6.00041 96.334,6.00041 L96.334,6 M112.892,12.5248 C112.98,12.5754 113.036,12.6654 113.036,12.78 L113.036,16.7 C113.036,16.7808 113.001,16.8566 112.936,16.92 C111.696,18.86 109.616,20 107.376,20 C103.676,20 100.656,16.86 100.656,13 C100.656,9.13998 103.676,5.99998 107.376,5.99998 C107.816,5.99998 108.256,6.05998 108.676,6.13998 C108.728,6.15139 108.772,6.17258 108.809,6.20059 C108.854,6.20479 108.897,6.21779 108.936,6.24 C109.076,6.32 109.136,6.52 109.036,6.66 L102.703,17.104 C103.823,18.5056 105.503,19.4004 107.376,19.4004 C109.396,19.4004 111.296,18.3404 112.416,16.5804 L112.416,13.0804 L108.256,13.0804 C108.076,13.0804 107.936,12.9404 107.936,12.7804 C107.936,12.6004 108.076,12.4604 108.256,12.4604 L112.696,12.4604 C112.771,12.4604 112.838,12.4844 112.892,12.5252 L112.892,12.5248 M102.315,16.5642 L108.302,6.6928 C108,6.64421 107.688,6.61981 107.376,6.61981 L107.077,6.62741 C107.076,6.68042 107.062,6.73343 107.036,6.77983 L101.695,15.3258 C101.859,15.764 102.068,16.1788 102.315,16.5642 L102.315,16.5642 M101.453,14.529 L106.338,6.7124 C103.47,7.2292 101.276,9.8504 101.276,12.9998 C101.276,13.5264 101.337,14.0386 101.453,14.529 L101.453,14.529 L101.453,14.529 M120.398,6.32 L120.398,19.62 C120.398,19.6862 120.38,19.7458 120.35,19.796 C120.301,19.9134 120.19,20 120.058,20 L118.158,20 C117.978,20 117.818,19.84 117.819,19.641 C117.818,19.6342 117.818,19.6272 117.818,19.62 L117.818,6.32001 C117.818,6.14001 117.978,6.00001 118.158,6.00001 C118.338,6.00001 118.478,6.14001 118.478,6.32001 L118.478,19.32 L119.738,19.32 L119.738,6.32001 C119.738,6.14001 119.878,6.00001 120.058,6.00001 C120.238,6.00001 120.398,6.14001 120.398,6.32001 L120.398,6.32 M135.52,6 C135.7,6 135.86,6.15977 135.86,6.33976 L135.86,19.6798 C135.86,19.8598 135.7,19.9998 135.515,19.9998 L135.511,19.9998 L135.507,19.9998 C135.49,19.9992 135.474,19.9974 135.456,19.994 C135.456,19.994 135.455,19.9938 135.455,19.9938 C135.379,19.9794 135.311,19.9408 135.262,19.8864 L135.22,19.84 L127.76,7.52398 L127.76,10.0404 L133.66,19.5004 C133.76,19.6604 133.72,19.8604 133.56,19.9604 C133.5,19.9804 133.44,20.0004 133.38,20.0004 C133.28,20.0004 133.16,19.9404 133.1,19.8404 L127.76,11.2964 L127.76,19.6404 C127.76,19.6918 127.747,19.74 127.724,19.7826 C127.683,19.9106 127.564,20.0004 127.42,20.0004 L125.52,20.0004 C125.34,20.0004 125.18,19.8604 125.18,19.6804 L125.181,19.66 C125.18,19.6534 125.18,19.647 125.18,19.6404 L125.18,6.34041 C125.18,6.16041 125.32,6.00041 125.52,6.00041 C125.7,6.00041 125.84,6.16041 125.84,6.34041 L125.84,19.3404 L127.08,19.3404 L127.08,6.34041 C127.08,6.16041 127.24,6.00041 127.42,6.00041 L127.523,6.01801 C127.587,6.03601 127.645,6.07422 127.683,6.13121 L127.735,6.21841 L135.18,18.4794 L135.18,6.34041 C135.18,6.16041 135.34,6.00041 135.52,6.00041 L135.52,6 M141.237,19.34 L148.722,19.34 C148.902,19.34 149.042,19.48 149.042,19.66 C149.042,19.84 148.902,20 148.722,20 L140.182,20 C140.002,20 139.842,19.84 139.843,19.6406 C139.842,19.6338 139.842,19.6268 139.842,19.62 L139.842,6.31999 C139.842,6.14 139.982,5.99999 140.182,5.99999 L148.722,5.99999 C148.902,5.99999 149.042,6.13999 149.042,6.33999 C149.042,6.39538 149.029,6.44719 149.005,6.49219 C148.998,6.52898 148.984,6.56539 148.962,6.6 L144.899,13.3 L147.782,13.3 C147.962,13.3 148.102,13.46 148.102,13.64 C148.102,13.82 147.962,13.96 147.782,13.96 L144.499,13.96 L141.237,19.34 M140.502,19.255 L148.139,6.65998 L146.788,6.65998 L146.762,6.71998 L140.502,16.72 L140.502,19.255 M146.007,6.66 L140.502,6.66 L140.502,15.4644 L146.007,6.66 M154.419,19.34 L161.904,19.34 C162.084,19.34 162.224,19.48 162.224,19.66 C162.224,19.84 162.084,20 161.904,20 L153.364,20 C153.184,20 153.024,19.84 153.025,19.6406 C153.024,19.6338 153.024,19.6268 153.024,19.62 L153.024,6.31999 C153.024,6.14 153.164,5.99999 153.364,5.99999 L161.904,5.99999 C162.084,5.99999 162.224,6.13999 162.224,6.33999 C162.224,6.39538 162.211,6.44719 162.187,6.49219 C162.18,6.52898 162.166,6.56539 162.144,6.6 L158.081,13.3 L160.964,13.3 C161.144,13.3 161.284,13.46 161.284,13.64 C161.284,13.82 161.144,13.96 160.964,13.96 L157.681,13.96 L154.419,19.34 M153.684,19.255 L161.321,6.65998 L159.97,6.65998 L159.944,6.71998 L153.684,16.72 L153.684,19.255 M159.189,6.66 L153.684,6.66 L153.684,15.4644 L159.189,6.66 M172.554,15.5004 L174.906,19.38 C175.006,19.54 174.946,19.74 174.806,19.84 C174.746,19.86 174.686,19.88 174.626,19.88 C174.506,19.88 174.406,19.82 174.346,19.72 L171.967,15.7954 C171.589,15.9576 171.188,16.0788 170.769,16.1534 L172.806,19.42 C172.906,19.58 172.866,19.78 172.706,19.88 C172.666,19.9 172.606,19.92 172.546,19.92 C172.426,19.92 172.326,19.86 172.266,19.76 L170.06,16.2334 L169.786,16.24 C169.758,16.24 169.731,16.2368 169.706,16.2304 L169.626,16.24 L166.866,16.24 L166.866,19.68 C166.866,19.86 166.726,20 166.546,20 C166.366,20 166.206,19.86 166.206,19.68 L166.206,6.5 C166.206,6.4592 166.214,6.42061 166.229,6.385 L166.226,6.34 C166.226,6.16 166.366,6 166.546,6 L169.626,6 C169.667,6 169.705,6.0082 169.741,6.02301 L169.786,6.02 C172.726,6.02 175.126,8.3 175.126,11.14 C175.126,12.9892 174.094,14.6062 172.554,15.5004 L172.554,15.5004 M174.466,11.14 C174.466,8.68 172.366,6.68 169.786,6.68 C169.745,6.68 169.707,6.6718 169.671,6.65699 L169.626,6.66 L167.196,6.66 L172.22,14.9484 C173.566,14.1644 174.466,12.7508 174.466,11.14 M166.866,9.892 L170.401,15.5616 C170.831,15.5076 171.244,15.3974 171.63,15.239 L166.866,7.3798 L166.866,9.892 L166.866,9.89202 L166.866,9.892 M166.866,15.5802 L169.626,15.5802 L169.652,15.5812 L166.866,11.1274 L166.866,15.5802 L166.866,15.5802 L166.866,15.5802 M182.488,6.32 L182.488,19.62 C182.488,19.6862 182.47,19.7458 182.44,19.796 C182.391,19.9134 182.28,20 182.148,20 L180.248,20 C180.068,20 179.908,19.84 179.909,19.641 C179.908,19.6342 179.908,19.6272 179.908,19.62 L179.908,6.32001 C179.908,6.14001 180.068,6.00001 180.248,6.00001 C180.428,6.00001 180.568,6.14001 180.568,6.32001 L180.568,19.32 L181.828,19.32 L181.828,6.32001 C181.828,6.14001 181.968,6.00001 182.148,6.00001 C182.328,6.00001 182.488,6.14001 182.488,6.32001 L182.488,6.32 M197.61,6 C197.79,6 197.95,6.15977 197.95,6.33976 L197.95,19.6798 C197.95,19.8598 197.79,19.9998 197.605,19.9998 L197.601,19.9998 L197.597,19.9998 C197.58,19.9992 197.564,19.9974 197.546,19.994 C197.546,19.994 197.545,19.9938 197.545,19.9938 C197.469,19.9794 197.401,19.9408 197.352,19.8864 L197.31,19.84 L189.85,7.52398 L189.85,10.0404 L195.75,19.5004 C195.85,19.6604 195.81,19.8604 195.65,19.9604 C195.59,19.9804 195.53,20.0004 195.47,20.0004 C195.37,20.0004 195.25,19.9404 195.19,19.8404 L189.85,11.2964 L189.85,19.6404 C189.85,19.6918 189.837,19.74 189.814,19.7826 C189.773,19.9106 189.654,20.0004 189.51,20.0004 L187.61,20.0004 C187.43,20.0004 187.27,19.8604 187.27,19.6804 L187.271,19.66 C187.27,19.6534 187.27,19.647 187.27,19.6404 L187.27,6.34041 C187.27,6.16041 187.41,6.00041 187.61,6.00041 C187.79,6.00041 187.93,6.16041 187.93,6.34041 L187.93,19.3404 L189.17,19.3404 L189.17,6.34041 C189.17,6.16041 189.33,6.00041 189.51,6.00041 L189.613,6.01801 C189.677,6.03601 189.735,6.07422 189.773,6.13121 L189.825,6.21841 L197.27,18.4794 L197.27,6.34041 C197.27,6.16041 197.43,6.00041 197.61,6.00041 L197.61,6 M214.168,12.5248 C214.256,12.5754 214.312,12.6654 214.312,12.78 L214.312,16.7 C214.312,16.7808 214.277,16.8566 214.212,16.92 C212.972,18.86 210.892,20 208.652,20 C204.952,20 201.932,16.86 201.932,13 C201.932,9.13998 204.952,5.99998 208.652,5.99998 C209.092,5.99998 209.532,6.05998 209.952,6.13998 C210.004,6.15139 210.048,6.17258 210.085,6.20059 C210.13,6.20479 210.173,6.21779 210.212,6.24 C210.352,6.32 210.412,6.52 210.312,6.66 L203.979,17.104 C205.099,18.5056 206.779,19.4004 208.652,19.4004 C210.672,19.4004 212.572,18.3404 213.692,16.5804 L213.692,13.0804 L209.532,13.0804 C209.352,13.0804 209.212,12.9404 209.212,12.7804 C209.212,12.6004 209.352,12.4604 209.532,12.4604 L213.972,12.4604 C214.047,12.4604 214.114,12.4844 214.168,12.5252 L214.168,12.5248 M203.591,16.5642 L209.578,6.6928 C209.276,6.64421 208.964,6.61981 208.652,6.61981 L208.353,6.62741 C208.352,6.68042 208.338,6.73343 208.312,6.77983 L202.971,15.3258 C203.135,15.764 203.344,16.1788 203.591,16.5642 L203.591,16.5642 M202.729,14.529 L207.614,6.7124 C204.746,7.2292 202.552,9.8504 202.552,12.9998 C202.552,13.5264 202.613,14.0386 202.729,14.529 L202.729,14.529"/>
</g>

<g fill="#000000" fill-opacity="1" stroke="#000000" stroke-opacity="1" stroke-width="1" stroke-linecap="square" stroke-linejoin="miter" stroke-miterlimit="2" transform="matrix(1.31491,0,0,1.31491,17.0404,322.95)"
>
</g>

<g fill="#000000" fill-opacity="1" stroke="#000000" stroke-opacity="1" stroke-width="1" stroke-linecap="square" stroke-linejoin="miter" stroke-miterlimit="2" transform="matrix(1.31491,0,0,1.31491,17.0404,322.95)"
>
</g>

<g fill="#000000" fill-opacity="1" stroke="#000000" stroke-opacity="1" stroke-width="1" stroke-linecap="square" stroke-linejoin="miter" stroke-miterlimit="2" transform="matrix(2.12291,0,0,2.12291,8.0027,8)"
>
</g>

<g fill="#000000" fill-opacity="1" stroke="#000000" stroke-opacity="1" stroke-width="1" stroke-linecap="square" stroke-linejoin="miter" stroke-miterlimit="2" transform="matrix(2.12291,0,0,2.12291,8.0027,8)"
>
</g>

<g fill="#000000" fill-opacity="1" stroke="#000000" stroke-opacity="1" stroke-width="1" stroke-linecap="square" stroke-linejoin="miter" stroke-miterlimit="2" transform="matrix(1,0,0,1,0,0)"
>
</g>

<g fill="#000000" fill-opacity="1" stroke="#000000" stroke-opacity="1" stroke-width="1" stroke-linecap="square" stroke-linejoin="miter" stroke-miterlimit="2" transform="matrix(1,0,0,1,0,0)"
>
</g>

<g fill="#000000" fill-opacity="1" stroke="#000000" stroke-opacity="1" stroke-width="1" stroke-linecap="square" stroke-linejoin="miter" stroke-miterlimit="2" transform="matrix(1,0,0,1,0,0)"
>
</g>

<g fill="#000000" fill-opacity="1" stroke="#000000" stroke-opacity="1" stroke-width="1" stroke-linecap="square" stroke-linejoin="miter" stroke-miterlimit="2" transform="matrix(1,0,0,1,0,0)"
>
</g>

<g fill="#000000" fill-opacity="1" stroke="#000000" stroke-opacity="1" stroke-width="1" stroke-linecap="square" stroke-linejoin="miter" stroke-miterlimit="2" transform="matrix(2.12291,0,0,2.12291,8.0027,8)"
>
</g>

<g fill="#000000" fill-opacity="1" stroke="#000000" stroke-opacity="1" stroke-width="1" stroke-linecap="square" stroke-linejoin="miter" stroke-miterlimit="2" transform="matrix(29.5053,0,0,29.5053,84.9659,-24.6668)"
>
</g>

<g fill="#000000" fill-opacity="1" stroke="#000000" stroke-opacity="1" stroke-width="1" stroke-linecap="square" stroke-linejoin="miter" stroke-miterlimit="2" transform="matrix(29.5053,0,0,29.5053,84.9659,-24.6668)"
>
</g>

<g fill="#000000" fill-opacity="1" stroke="#000000" stroke-opacity="1" stroke-width="1" stroke-linecap="square" stroke-linejoin="miter" stroke-miterlimit="2" transform="matrix(2.12291,0,0,2.12291,8.0027,8)"
>
</g>

<g fill="#000000" fill-opacity="1" stroke="#000000" stroke-opacity="1" stroke-width="1" stroke-linecap="square" stroke-linejoin="miter" stroke-miterlimit="2" transform="matrix(2.12291,0,0,2.12291,8.0027,8)"
>
</g>

<g fill="#000000" fill-opacity="1" stroke="#000000" stroke-opacity="1" stroke-width="1" stroke-linecap="square" stroke-linejoin="miter" stroke-miterlimit="2" transform="matrix(2.12291,0,0,2.12291,8.0027,8)"
>
</g>

<g fill="#000000" fill-opacity="1" stroke="#000000" stroke-opacity="1" stroke-width="1" stroke-linecap="square" stroke-linejoin="miter" stroke-miterlimit="2" transform="matrix(2.12291,0,0,2.12291,8.0027,8)"
>
</g>

<g fill="#000000" fill-opacity="1" stroke="#000000" stroke-opacity="1" stroke-width="1" stroke-linecap="square" stroke-linejoin="miter" stroke-miterlimit="2" transform="matrix(1,0,0,1,0,0)"
>
</g>

<g fill="#000000" fill-opacity="1" stroke="#000000" stroke-opacity="1" stroke-width="1" stroke-linecap="square" stroke-linejoin="miter" stroke-miterlimit="2" transform="matrix(1,0,0,1,0,0)"
>
</g>

<g fill="#000000" fill-opacity="1" stroke="#000000" stroke-opacity="1" stroke-width="1" stroke-linecap="square" stroke-linejoin="miter" stroke-miterlimit="2" transform="matrix(1,0,0,1,0,0)"
>
</g>

<g fill="#000000" fill-opacity="1" stroke="#000000" stroke-opacity="1" stroke-width="1" stroke-linecap="square" stroke-linejoin="miter" stroke-miterlimit="2" transform="matrix(1,0,0,1,0,0)"
>
</g>

<g fill="#000000" fill-opacity="1" stroke="#000000" stroke-opacity="1" stroke-width="1" stroke-linecap="square" stroke-linejoin="miter" stroke-miterlimit="2" transform="matrix(1,0,0,1,0,0)"
>
</g>

<g fill="#000000" fill-opacity="1" stroke="#000000" stroke-opacity="1" stroke-width="1" stroke-linecap="square" stroke-linejoin="miter" stroke-miterlimit="2" transform="matrix(1,0,0,1,0,0)"
>
</g>
</g>
</svg>
