<?xml version="1.0" encoding="UTF-8" standalone="no"?>
<svg width="317.5mm" height="105.833mm"
 xmlns="http://www.w3.org/2000/svg" xmlns:xlink="http://www.w3.org/1999/xlink"  version="1.2" baseProfile="tiny">
<desc>Created by HiQPdf</desc>
<defs>
<linearGradient gradientUnits="userSpaceOnUse" x1="0" y1="0" x2="1" y2="0" id="gradient1">
    <stop offset="1e-07" stop-color="#b88746" stop-opacity="1" />
    <stop offset="1" stop-color="#fdf5a6" stop-opacity="1" />
</linearGradient>
<linearGradient gradientUnits="userSpaceOnUse" x1="0" y1="0" x2="1" y2="0" id="gradient2">
    <stop offset="1e-07" stop-color="#b88746" stop-opacity="1" />
    <stop offset="1" stop-color="#fdf5a6" stop-opacity="1" />
</linearGradient>
<linearGradient gradientUnits="userSpaceOnUse" x1="0" y1="0" x2="1" y2="0" id="gradient3">
    <stop offset="1e-07" stop-color="#b88746" stop-opacity="1" />
    <stop offset="1" stop-color="#fdf5a6" stop-opacity="1" />
</linearGradient>
<linearGradient gradientUnits="userSpaceOnUse" x1="0" y1="0" x2="1" y2="0" id="gradient4">
    <stop offset="1e-07" stop-color="#b88746" stop-opacity="1" />
    <stop offset="1" stop-color="#fdf5a6" stop-opacity="1" />
</linearGradient>
</defs>
<g fill="none" stroke="black" stroke-width="1" fill-rule="evenodd" stroke-linecap="square" stroke-linejoin="bevel" >

<g fill="#000000" fill-opacity="1" stroke="#000000" stroke-opacity="1" stroke-width="1" stroke-linecap="square" stroke-linejoin="miter" stroke-miterlimit="2" transform="matrix(1,0,0,1,0,0)"
>
</g>

<g fill="#000000" fill-opacity="1" stroke="#000000" stroke-opacity="1" stroke-width="1" stroke-linecap="square" stroke-linejoin="miter" stroke-miterlimit="2" transform="matrix(1,0,0,1,0,0)"
>
</g>

<g fill="#000000" fill-opacity="1" stroke="#000000" stroke-opacity="1" stroke-width="1" stroke-linecap="square" stroke-linejoin="miter" stroke-miterlimit="2" transform="matrix(1,0,0,1,0,0)"
>
</g>

<g fill="#000000" fill-opacity="1" stroke="#000000" stroke-opacity="1" stroke-width="1" stroke-linecap="square" stroke-linejoin="miter" stroke-miterlimit="2" transform="matrix(1,0,0,1,0,0)"
>
</g>

<g fill="#000000" fill-opacity="1" stroke="#000000" stroke-opacity="1" stroke-width="1" stroke-linecap="square" stroke-linejoin="miter" stroke-miterlimit="2" transform="matrix(2.61729,0,0,2.61729,8,8.00217)"
>
</g>

<g fill="#000000" fill-opacity="1" stroke="#000000" stroke-opacity="1" stroke-width="1" stroke-linecap="square" stroke-linejoin="miter" stroke-miterlimit="2" transform="matrix(0.0699686,0,0,0.0699686,125.778,8.00217)"
>
</g>

<g fill="url(#gradient1)" stroke="none" transform="matrix(0.0699686,0,0,0.0699686,125.778,8.00217)"
>
<path vector-effect="none" fill-rule="nonzero" d="M798.5,661.8 L0,661.8 L798.5,48 L1513.1,48 L798.5,661.8"/>
</g>

<g fill="#000000" fill-opacity="1" stroke="#000000" stroke-opacity="1" stroke-width="1" stroke-linecap="square" stroke-linejoin="miter" stroke-miterlimit="2" transform="matrix(0.0699686,0,0,0.0699686,125.778,8.00217)"
>
</g>

<g fill="#000000" fill-opacity="1" stroke="#000000" stroke-opacity="1" stroke-width="1" stroke-linecap="square" stroke-linejoin="miter" stroke-miterlimit="2" transform="matrix(0.0699686,0,0,0.0699686,125.778,8.00217)"
>
</g>

<g fill="url(#gradient2)" stroke="none" transform="matrix(0.0699686,0,0,0.0699686,125.778,8.00217)"
>
<path vector-effect="none" fill-rule="nonzero" d="M1445.9,597.1 L2244.4,597.1 L1532.3,48 L1172.6,354.9 L1445.9,597.1"/>
</g>

<g fill="#000000" fill-opacity="1" stroke="#000000" stroke-opacity="1" stroke-width="1" stroke-linecap="square" stroke-linejoin="miter" stroke-miterlimit="2" transform="matrix(0.0699686,0,0,0.0699686,125.778,8.00217)"
>
</g>

<g fill="#000000" fill-opacity="1" stroke="#000000" stroke-opacity="1" stroke-width="1" stroke-linecap="square" stroke-linejoin="miter" stroke-miterlimit="2" transform="matrix(0.0699686,0,0,0.0699686,125.778,8.00217)"
>
</g>

<g fill="url(#gradient3)" stroke="none" transform="matrix(0.0699686,0,0,0.0699686,125.778,8.00217)"
>
<path vector-effect="none" fill-rule="evenodd" d="M553.9,0 L719.4,0 L719.4,283 L553.9,283 L553.9,0"/>
</g>

<g fill="#000000" fill-opacity="1" stroke="#000000" stroke-opacity="1" stroke-width="1" stroke-linecap="square" stroke-linejoin="miter" stroke-miterlimit="2" transform="matrix(0.0699686,0,0,0.0699686,125.778,8.00217)"
>
</g>

<g fill="#000000" fill-opacity="1" stroke="#000000" stroke-opacity="1" stroke-width="1" stroke-linecap="square" stroke-linejoin="miter" stroke-miterlimit="2" transform="matrix(0.0699686,0,0,0.0699686,125.778,8.00217)"
>
</g>

<g fill="#000000" fill-opacity="1" stroke="#000000" stroke-opacity="1" stroke-width="1" stroke-linecap="square" stroke-linejoin="miter" stroke-miterlimit="2" transform="matrix(0.0699686,0,0,0.0699686,125.778,8.00217)"
>
</g>

<g fill="#000000" fill-opacity="1" stroke="#000000" stroke-opacity="1" stroke-width="1" stroke-linecap="square" stroke-linejoin="miter" stroke-miterlimit="2" transform="matrix(2.61729,0,0,2.61729,8,8.00217)"
>
</g>

<g fill="#000000" fill-opacity="1" stroke="#000000" stroke-opacity="1" stroke-width="1" stroke-linecap="square" stroke-linejoin="miter" stroke-miterlimit="2" transform="matrix(8.47477,0,0,8.47477,8.00001,5.76204)"
>
</g>

<g fill="#ffffff" fill-opacity="1" stroke="none" transform="matrix(8.47477,0,0,8.47477,8.00001,5.76204)"
>
<path vector-effect="none" fill-rule="nonzero" d="M12.76,37.44 L14.2,37.44 L14.16,25.8 L22.68,13.44 L24.24,13.44 L15.56,25.88 L15.56,38.56 L11.44,38.56 L11.48,25.88 L1.76,12 L-7.15256e-07,12 L9.96,26.32 L9.96,40 L17,40 L17,26.32 L27,12 L21.96,12 L12.76,25.32 L12.76,37.44 L12.76,37.44 M18.64,12 L11.96,21.8 L6.04,13.44 L7.6,13.44 L12.08,19.76 L12.96,18.48 L8.36,12 L3.32,12 L11.28,23.32 L11.96,24.36 L20.4,12 L18.64,12 L18.64,12 M28.125,12.08 L29.565,12.08 L29.565,38.56 L44.885,38.56 L44.885,34.56 L33.605,34.56 L33.605,30.72 L35.045,30.72 L35.045,33.12 L46.325,33.12 L46.325,40 L28.125,40 L28.125,12.08 M30.845,12.08 L46.125,12.08 L46.125,18.92 L36.525,18.92 L36.525,17.48 L44.685,17.48 L44.685,13.52 L32.285,13.52 L32.285,25.08 L41.605,25.08 L41.605,26.52 L30.845,26.52 L30.845,12.08 L30.845,12.08 M30.845,27.8 L43.005,27.8 L43.005,23.8 L33.605,23.8 L33.605,14.72 L43.285,14.72 L43.285,16.16 L35.045,16.16 L35.045,22.36 L44.445,22.36 L44.445,29.24 L32.285,29.24 L32.285,35.88 L43.485,35.88 L43.485,37.32 L30.845,37.32 L30.845,27.8 L30.845,27.8"/>
</g>

<g fill="#000000" fill-opacity="1" stroke="#000000" stroke-opacity="1" stroke-width="1" stroke-linecap="square" stroke-linejoin="miter" stroke-miterlimit="2" transform="matrix(8.47477,0,0,8.47477,8.00001,5.76204)"
>
</g>

<g fill="#000000" fill-opacity="1" stroke="#000000" stroke-opacity="1" stroke-width="1" stroke-linecap="square" stroke-linejoin="miter" stroke-miterlimit="2" transform="matrix(2.61729,0,0,2.61729,8,8.00217)"
>
</g>

<g fill="#000000" fill-opacity="1" stroke="#000000" stroke-opacity="1" stroke-width="1" stroke-linecap="square" stroke-linejoin="miter" stroke-miterlimit="2" transform="matrix(1.50034,0,0,1.50034,45.7597,362.804)"
>
</g>

<g fill="url(#gradient4)" stroke="none" transform="matrix(1.50034,0,0,1.50034,45.7597,362.804)"
>
<path vector-effect="none" fill-rule="nonzero" d="M6.9142,14.186 L8.0451,12.3755 L4.0381,6.3955 L1.7219,6.3955 L6.9142,14.186 M11.904,6.01 L12.3609,6.01 L7.11293,14.5966 L7.11293,20.0099 L6.72598,20.0099 L6.72598,14.5985 L0.99958,6.0099 L4.24288,6.0099 L4.30315,6.10129 L8.26795,12.0163 L11.904,6.01 M23.6935,6.378 L19.0717,6.378 L19.0717,12.5454 L23.6935,12.5454 L23.6935,12.9238 L19.0717,12.9238 L19.0717,19.6212 L23.6935,19.6212 L23.6935,19.9996 L16.6935,19.9996 L16.6935,5.99958 L23.6935,5.99958 L23.6935,6.37798 L23.6935,6.378 M18.6933,19.6216 L18.6933,6.37862 L17.0718,6.37862 L17.0718,19.6216 L18.6933,19.6216 M35.2572,12.9998 C36.6957,13.4843 37.7016,14.8511 37.7016,16.4052 C37.7016,18.3491 36.1546,19.9334 34.2312,19.994 L34.2312,19.9998 L28.007,19.9998 L28.007,19.6215 L29.1764,19.6215 L29.1764,6.37846 L28.007,6.37846 L28.007,6.00006 L34.2312,6.00006 L34.2312,6.0059 C34.4342,6.01213 34.6368,6.03178 34.8346,6.07203 C36.4959,6.41037 37.7016,7.89183 37.7016,9.59483 C37.7016,11.177 36.6757,12.521 35.2572,13 L35.2572,12.9998 M31.138,19.6215 L31.138,6.37854 L29.5537,6.37854 L29.5537,19.6215 L31.138,19.6215 M31.5152,6.378 L31.5152,12.8106 L34.118,12.8106 C35.8861,12.8106 37.3244,11.3678 37.3244,9.5944 C37.3244,8.0707 36.2456,6.745 34.7594,6.4424 C34.5496,6.39963 34.3338,6.37804 34.1179,6.37804 L31.5151,6.37804 L31.5152,6.378 M34.118,19.6215 C35.8861,19.6215 37.3244,18.1787 37.3244,16.4053 C37.3244,14.8816 36.2456,13.5559 34.7594,13.2533 C34.5496,13.2106 34.3338,13.189 34.1179,13.189 L31.5151,13.189 L31.5151,19.6214 L34.1179,19.6214 L34.118,19.6215 M47.4693,6.378 L44.9341,6.37798 L44.9341,19.621 L47.4693,19.621 L47.4693,19.9994 L42.0206,19.9994 L42.0206,19.621 L44.5558,19.621 L44.5558,6.378 L42.0206,6.378 L42.0206,5.9996 L47.4693,5.9996 L47.4693,6.378 L47.4693,6.378 M55.875,6.388 C54.551,6.388 53.3904,7.0888 52.7356,8.1368 L59.956,13.5774 L59.956,15.7717 L59.8732,15.7717 L59.956,15.8339 L59.956,15.9284 C59.956,18.1788 58.1251,20.0094 55.8748,20.0094 C53.6245,20.0094 51.7938,18.1787 51.7938,15.9284 L52.1722,15.9284 C52.1722,17.97 53.8331,19.631 55.8748,19.631 C57.8854,19.631 59.5266,18.0206 59.5766,16.0222 L51.7938,10.1852 L51.7938,10.0907 C51.7938,7.84033 53.6245,6.00973 55.8748,6.00973 C58.1251,6.00973 59.956,7.84043 59.956,10.0907 L59.5776,10.0907 C59.5776,8.04913 57.9165,6.38813 55.8748,6.38813 L55.875,6.388 M59.5778,13.7662 L52.55,8.4708 C52.3233,8.93456 52.187,9.45022 52.1734,9.997 L59.5778,15.5504 L59.5778,13.7664 L59.5778,13.7662 M79.301,6.378 L74.6792,6.378 L74.6792,12.5454 L79.301,12.5454 L79.301,12.9238 L74.6792,12.9238 L74.6792,19.6212 L79.301,19.6212 L79.301,19.9996 L72.301,19.9996 L72.301,5.99958 L79.301,5.99958 L79.301,6.37798 L79.301,6.378 M74.3008,19.6216 L74.3008,6.37862 L72.6793,6.37862 L72.6793,19.6216 L74.3008,19.6216 M91.8457,6 L92.2056,6 L92.2056,20 L83.9746,10.1902 L83.9746,19.9999 L83.6145,19.9999 L83.6145,5.9999 L91.8457,15.8609 L91.8457,5.9998 L91.8457,6 M91.8457,18.9669 L91.8455,16.4429 L83.9745,7.0389 L83.9745,9.6112 L91.8457,18.9669 M106.252,12.8108 L110.528,12.8108 L110.528,13 C110.528,16.86 107.387,20 103.528,20 C99.6678,20 96.5276,16.86 96.5276,13 C96.5276,9.13998 99.6678,5.99998 103.528,5.99998 C105.056,5.99998 106.508,6.48376 107.728,7.39938 L107.5,7.70194 C106.347,6.83608 104.974,6.37834 103.528,6.37834 C101.319,6.37834 99.3603,7.46684 98.1567,9.13434 C98.9841,10.1905 99.4391,11.5031 99.4391,12.8489 C99.4391,14.2571 98.9431,15.6259 98.043,16.7057 C99.2348,18.4637 101.248,19.6213 103.528,19.6213 C107.116,19.6213 110.046,16.7531 110.147,13.1889 L106.252,13.1889 L106.252,12.8106 L106.252,12.8108 M96.9064,13 C96.9064,14.2289 97.2442,15.38 97.83,16.3676 C98.6241,15.3711 99.061,14.1278 99.061,12.8492 C99.061,11.6293 98.6585,10.4406 97.9311,9.4684 C97.2832,10.4914 96.9064,11.7022 96.9064,13 L96.9064,13 M120.29,6.378 L117.755,6.37798 L117.755,19.621 L120.29,19.621 L120.29,19.9994 L114.842,19.9994 L114.842,19.621 L117.377,19.621 L117.377,6.378 L114.842,6.378 L114.842,5.9996 L120.29,5.9996 L120.29,6.378 L120.29,6.378 M132.846,6 L133.206,6 L133.206,20 L124.975,10.1902 L124.975,19.9999 L124.615,19.9999 L124.615,5.9999 L132.846,15.8609 L132.846,5.9998 L132.846,6 M132.846,18.9669 L132.846,16.4429 L124.975,7.0389 L124.975,9.6112 L132.846,18.9669 M144.529,6.378 L139.907,6.378 L139.907,12.5454 L144.529,12.5454 L144.529,12.9238 L139.907,12.9238 L139.907,19.6212 L144.529,19.6212 L144.529,19.9996 L137.529,19.9996 L137.529,5.99958 L144.529,5.99958 L144.529,6.37798 L144.529,6.378 M139.528,19.6216 L139.528,6.37862 L137.907,6.37862 L137.907,19.6216 L139.528,19.6216 M155.842,6.378 L151.22,6.378 L151.22,12.5454 L155.842,12.5454 L155.842,12.9238 L151.22,12.9238 L151.22,19.6212 L155.842,19.6212 L155.842,19.9996 L148.842,19.9996 L148.842,5.99958 L155.842,5.99958 L155.842,6.37798 L155.842,6.378 M150.842,19.6216 L150.842,6.37862 L149.22,6.37862 L149.22,19.6216 L150.842,19.6216 M163.344,14.4098 L163.344,6.3987 L161.711,6.3987 L161.711,14.4098 L163.344,14.4098 M163.733,6.399 L163.733,14.4101 L164.939,14.4101 C167.148,14.4101 168.944,12.6134 168.944,10.4045 C168.944,8.1956 167.148,6.3989 164.939,6.3989 L163.733,6.3989 L163.733,6.399 M161.711,20.0097 L161.322,20.0097 L161.322,6.39871 L160.156,6.39871 L160.156,6.00982 L164.939,6.00982 C167.362,6.00982 169.333,7.98152 169.333,10.4042 C169.333,12.8269 167.361,14.7986 164.939,14.7986 L164.009,14.7986 L169.226,20.0098 L168.674,20.0098 L163.459,14.7986 L161.711,14.7986 L161.711,20.0097 L161.711,20.0097 M179.098,6.378 L176.563,6.37798 L176.563,19.621 L179.098,19.621 L179.098,19.9994 L173.649,19.9994 L173.649,19.621 L176.184,19.621 L176.184,6.378 L173.649,6.378 L173.649,5.9996 L179.098,5.9996 L179.098,6.378 L179.098,6.378 M191.654,6 L192.014,6 L192.014,20 L183.783,10.1902 L183.783,19.9999 L183.423,19.9999 L183.423,5.9999 L191.654,15.8609 L191.654,5.9998 L191.654,6 M191.654,18.9669 L191.654,16.4429 L183.783,7.0389 L183.783,9.6112 L191.654,18.9669 M206.06,12.8108 L210.336,12.8108 L210.336,13 C210.336,16.86 207.195,20 203.336,20 C199.476,20 196.336,16.86 196.336,13 C196.336,9.13998 199.476,5.99998 203.336,5.99998 C204.864,5.99998 206.316,6.48376 207.536,7.39938 L207.308,7.70194 C206.155,6.83608 204.782,6.37834 203.336,6.37834 C201.127,6.37834 199.168,7.46684 197.965,9.13434 C198.792,10.1905 199.247,11.5031 199.247,12.8489 C199.247,14.2571 198.751,15.6259 197.851,16.7057 C199.043,18.4637 201.056,19.6213 203.336,19.6213 C206.924,19.6213 209.854,16.7531 209.955,13.1889 L206.06,13.1889 L206.06,12.8106 L206.06,12.8108 M196.714,13 C196.714,14.2289 197.052,15.38 197.638,16.3676 C198.432,15.3711 198.869,14.1278 198.869,12.8492 C198.869,11.6293 198.467,10.4406 197.739,9.4684 C197.091,10.4914 196.714,11.7022 196.714,13 L196.714,13"/>
</g>

<g fill="#000000" fill-opacity="1" stroke="#000000" stroke-opacity="1" stroke-width="1" stroke-linecap="square" stroke-linejoin="miter" stroke-miterlimit="2" transform="matrix(1.50034,0,0,1.50034,45.7597,362.804)"
>
</g>

<g fill="#000000" fill-opacity="1" stroke="#000000" stroke-opacity="1" stroke-width="1" stroke-linecap="square" stroke-linejoin="miter" stroke-miterlimit="2" transform="matrix(1.50034,0,0,1.50034,45.7597,362.804)"
>
</g>

<g fill="#000000" fill-opacity="1" stroke="#000000" stroke-opacity="1" stroke-width="1" stroke-linecap="square" stroke-linejoin="miter" stroke-miterlimit="2" transform="matrix(2.61729,0,0,2.61729,8,8.00217)"
>
</g>

<g fill="#000000" fill-opacity="1" stroke="#000000" stroke-opacity="1" stroke-width="1" stroke-linecap="square" stroke-linejoin="miter" stroke-miterlimit="2" transform="matrix(2.61729,0,0,2.61729,8,8.00217)"
>
</g>

<g fill="#000000" fill-opacity="1" stroke="#000000" stroke-opacity="1" stroke-width="1" stroke-linecap="square" stroke-linejoin="miter" stroke-miterlimit="2" transform="matrix(1,0,0,1,0,0)"
>
</g>

<g fill="#000000" fill-opacity="1" stroke="#000000" stroke-opacity="1" stroke-width="1" stroke-linecap="square" stroke-linejoin="miter" stroke-miterlimit="2" transform="matrix(1,0,0,1,0,0)"
>
</g>

<g fill="#000000" fill-opacity="1" stroke="#000000" stroke-opacity="1" stroke-width="1" stroke-linecap="square" stroke-linejoin="miter" stroke-miterlimit="2" transform="matrix(1,0,0,1,0,0)"
>
</g>

<g fill="#000000" fill-opacity="1" stroke="#000000" stroke-opacity="1" stroke-width="1" stroke-linecap="square" stroke-linejoin="miter" stroke-miterlimit="2" transform="matrix(1,0,0,1,0,0)"
>
</g>

<g fill="#000000" fill-opacity="1" stroke="#000000" stroke-opacity="1" stroke-width="1" stroke-linecap="square" stroke-linejoin="miter" stroke-miterlimit="2" transform="matrix(2.61729,0,0,2.61729,8,8.00217)"
>
</g>

<g fill="#000000" fill-opacity="1" stroke="#000000" stroke-opacity="1" stroke-width="1" stroke-linecap="square" stroke-linejoin="miter" stroke-miterlimit="2" transform="matrix(0.0699686,0,0,0.0699686,125.778,8.00217)"
>
</g>

<g fill="#000000" fill-opacity="1" stroke="#000000" stroke-opacity="1" stroke-width="1" stroke-linecap="square" stroke-linejoin="miter" stroke-miterlimit="2" transform="matrix(0.0699686,0,0,0.0699686,125.778,8.00217)"
>
</g>

<g fill="#000000" fill-opacity="1" stroke="#000000" stroke-opacity="1" stroke-width="1" stroke-linecap="square" stroke-linejoin="miter" stroke-miterlimit="2" transform="matrix(2.61729,0,0,2.61729,8,8.00217)"
>
</g>

<g fill="#000000" fill-opacity="1" stroke="#000000" stroke-opacity="1" stroke-width="1" stroke-linecap="square" stroke-linejoin="miter" stroke-miterlimit="2" transform="matrix(2.61729,0,0,2.61729,8,8.00217)"
>
</g>

<g fill="#000000" fill-opacity="1" stroke="#000000" stroke-opacity="1" stroke-width="1" stroke-linecap="square" stroke-linejoin="miter" stroke-miterlimit="2" transform="matrix(2.61729,0,0,2.61729,8,8.00217)"
>
</g>

<g fill="#000000" fill-opacity="1" stroke="#000000" stroke-opacity="1" stroke-width="1" stroke-linecap="square" stroke-linejoin="miter" stroke-miterlimit="2" transform="matrix(2.61729,0,0,2.61729,8,8.00217)"
>
</g>

<g fill="#000000" fill-opacity="1" stroke="#000000" stroke-opacity="1" stroke-width="1" stroke-linecap="square" stroke-linejoin="miter" stroke-miterlimit="2" transform="matrix(1,0,0,1,0,0)"
>
</g>

<g fill="#000000" fill-opacity="1" stroke="#000000" stroke-opacity="1" stroke-width="1" stroke-linecap="square" stroke-linejoin="miter" stroke-miterlimit="2" transform="matrix(1,0,0,1,0,0)"
>
</g>

<g fill="#000000" fill-opacity="1" stroke="#000000" stroke-opacity="1" stroke-width="1" stroke-linecap="square" stroke-linejoin="miter" stroke-miterlimit="2" transform="matrix(1,0,0,1,0,0)"
>
</g>

<g fill="#000000" fill-opacity="1" stroke="#000000" stroke-opacity="1" stroke-width="1" stroke-linecap="square" stroke-linejoin="miter" stroke-miterlimit="2" transform="matrix(1,0,0,1,0,0)"
>
</g>

<g fill="#000000" fill-opacity="1" stroke="#000000" stroke-opacity="1" stroke-width="1" stroke-linecap="square" stroke-linejoin="miter" stroke-miterlimit="2" transform="matrix(1,0,0,1,0,0)"
>
</g>

<g fill="#000000" fill-opacity="1" stroke="#000000" stroke-opacity="1" stroke-width="1" stroke-linecap="square" stroke-linejoin="miter" stroke-miterlimit="2" transform="matrix(1,0,0,1,0,0)"
>
</g>
</g>
</svg>
